<svg width="22" height="22" viewBox="0 0 22 22" fill="none" xmlns="http://www.w3.org/2000/svg">
<path d="M17.4167 5.5H4.58333C3.57081 5.5 2.75 6.32081 2.75 7.33333V17.4167C2.75 18.4292 3.57081 19.25 4.58333 19.25H17.4167C18.4292 19.25 19.25 18.4292 19.25 17.4167V7.33333C19.25 6.32081 18.4292 5.5 17.4167 5.5Z" stroke="#FF6B1B"/>
<path d="M2.75 9.16667C2.75 7.43783 2.75 6.57433 3.28717 6.03717C3.82433 5.5 4.68783 5.5 6.41667 5.5H15.5833C17.3122 5.5 18.1757 5.5 18.7128 6.03717C19.25 6.57433 19.25 7.43783 19.25 9.16667H2.75Z" fill="#FF6B1B"/>
<path d="M6.41699 2.75V5.5M15.5837 2.75V5.5" stroke="#FF6B1B" stroke-linecap="round"/>
<path d="M9.62533 11H6.87533C6.6222 11 6.41699 11.2052 6.41699 11.4583V12.375C6.41699 12.6281 6.6222 12.8333 6.87533 12.8333H9.62533C9.87846 12.8333 10.0837 12.6281 10.0837 12.375V11.4583C10.0837 11.2052 9.87846 11 9.62533 11Z" fill="#FF6B1B"/>
<path d="M9.62533 14.6665H6.87533C6.6222 14.6665 6.41699 14.8717 6.41699 15.1248V16.0415C6.41699 16.2946 6.6222 16.4998 6.87533 16.4998H9.62533C9.87846 16.4998 10.0837 16.2946 10.0837 16.0415V15.1248C10.0837 14.8717 9.87846 14.6665 9.62533 14.6665Z" fill="#FF6B1B"/>
<path d="M15.1253 11H12.3753C12.1222 11 11.917 11.2052 11.917 11.4583V12.375C11.917 12.6281 12.1222 12.8333 12.3753 12.8333H15.1253C15.3785 12.8333 15.5837 12.6281 15.5837 12.375V11.4583C15.5837 11.2052 15.3785 11 15.1253 11Z" fill="#FF6B1B"/>
<path d="M15.1253 14.6665H12.3753C12.1222 14.6665 11.917 14.8717 11.917 15.1248V16.0415C11.917 16.2946 12.1222 16.4998 12.3753 16.4998H15.1253C15.3785 16.4998 15.5837 16.2946 15.5837 16.0415V15.1248C15.5837 14.8717 15.3785 14.6665 15.1253 14.6665Z" fill="#FF6B1B"/>
</svg>
