<svg width="12" height="12" viewBox="0 0 12 12" fill="none" xmlns="http://www.w3.org/2000/svg">
<path d="M11 9.3025C11 9.40195 10.9605 9.49734 10.8902 9.56766C10.8198 9.63799 10.7245 9.6775 10.625 9.6775H8.075C7.99148 9.98893 7.80754 10.2641 7.55171 10.4604C7.29588 10.6566 6.98244 10.763 6.66 10.763C6.33756 10.763 6.02412 10.6566 5.76829 10.4604C5.51246 10.2641 5.32852 9.98893 5.245 9.6775H1.375C1.27554 9.6775 1.18016 9.63799 1.10983 9.56766C1.03951 9.49734 1 9.40195 1 9.3025C1 9.20304 1.03951 9.10766 1.10983 9.03733C1.18016 8.967 1.27554 8.9275 1.375 8.9275H5.245C5.32852 8.61606 5.51246 8.34087 5.76829 8.14461C6.02412 7.94835 6.33756 7.84197 6.66 7.84197C6.98244 7.84197 7.29588 7.94835 7.55171 8.14461C7.80754 8.34087 7.99148 8.61606 8.075 8.9275H10.625C10.7245 8.9275 10.8198 8.967 10.8902 9.03733C10.9605 9.10766 11 9.20304 11 9.3025ZM11 2.6975C11 2.79695 10.9605 2.89233 10.8902 2.96266C10.8198 3.03299 10.7245 3.0725 10.625 3.0725H9.4C9.31648 3.38393 9.13254 3.65912 8.87671 3.85538C8.62088 4.05164 8.30744 4.15802 7.985 4.15802C7.66256 4.15802 7.34912 4.05164 7.09329 3.85538C6.83746 3.65912 6.65352 3.38393 6.57 3.0725H1.375C1.32575 3.0725 1.27699 3.0628 1.23149 3.04395C1.186 3.0251 1.14466 2.99748 1.10983 2.96266C1.07501 2.92784 1.04739 2.8865 1.02855 2.841C1.0097 2.7955 1 2.74674 1 2.6975C1 2.64825 1.0097 2.59949 1.02855 2.55399C1.04739 2.50849 1.07501 2.46715 1.10983 2.43233C1.14466 2.39751 1.186 2.36989 1.23149 2.35104C1.27699 2.3322 1.32575 2.3225 1.375 2.3225H6.57C6.65352 2.01106 6.83746 1.73587 7.09329 1.53961C7.34912 1.34335 7.66256 1.23697 7.985 1.23697C8.30744 1.23697 8.62088 1.34335 8.87671 1.53961C9.13254 1.73587 9.31648 2.01106 9.4 2.3225H10.625C10.6744 2.32182 10.7235 2.33106 10.7693 2.34967C10.8151 2.36828 10.8567 2.39588 10.8917 2.43083C10.9266 2.46579 10.9542 2.5074 10.9728 2.5532C10.9914 2.599 11.0007 2.64806 11 2.6975ZM11 5.9975C11.0007 6.04693 10.9914 6.09599 10.9728 6.14179C10.9542 6.1876 10.9266 6.2292 10.8917 6.26416C10.8567 6.29912 10.8151 6.32671 10.7693 6.34532C10.7235 6.36393 10.6744 6.37317 10.625 6.3725H4.775C4.69148 6.68393 4.50754 6.95912 4.25171 7.15538C3.99588 7.35164 3.68244 7.45802 3.36 7.45802C3.03756 7.45802 2.72412 7.35164 2.46829 7.15538C2.21246 6.95912 2.02852 6.68393 1.945 6.3725H1.375C1.27554 6.3725 1.18016 6.33299 1.10983 6.26266C1.03951 6.19233 1 6.09695 1 5.9975C1 5.89804 1.03951 5.80266 1.10983 5.73233C1.18016 5.662 1.27554 5.6225 1.375 5.6225H1.945C2.02852 5.31106 2.21246 5.03587 2.46829 4.83961C2.72412 4.64335 3.03756 4.53697 3.36 4.53697C3.68244 4.53697 3.99588 4.64335 4.25171 4.83961C4.50754 5.03587 4.69148 5.31106 4.775 5.6225H10.625C10.7245 5.6225 10.8198 5.662 10.8902 5.73233C10.9605 5.80266 11 5.89804 11 5.9975Z" fill="black" fill-opacity="0.7"/>
</svg>
