<svg width="14" height="12" viewBox="0 0 14 12" fill="none" xmlns="http://www.w3.org/2000/svg">
<g clip-path="url(#clip0_1_263)">
<path fill-rule="evenodd" clip-rule="evenodd" d="M1.26465 0H5.32406C5.67155 0 5.99056 0.140938 6.21842 0.366438C6.44971 0.595321 6.58871 0.907639 6.58871 1.25153V4.79865H6.22526V1.3733H0.358887V9.85887H1.22591V11.1679C1.22591 11.346 1.25667 11.5174 1.31364 11.6764H1.26465C0.917155 11.6764 0.598145 11.5355 0.37028 11.31C0.138997 11.08 0 10.7688 0 10.4238V1.25153C0 0.907639 0.142415 0.591938 0.37028 0.366438C0.601562 0.137555 0.916016 0 1.26465 0ZM11.4035 3.42986C11.4889 3.33289 11.6382 3.32275 11.735 3.40844C11.833 3.493 11.8433 3.6407 11.7567 3.73654L11.0856 4.49309C11.0013 4.58893 10.8555 4.59908 10.7575 4.5179L9.97705 3.87297C9.87679 3.79066 9.86426 3.64296 9.94743 3.54487C10.0306 3.44565 10.1799 3.43324 10.279 3.51555L10.6219 3.79855C10.5285 3.35995 10.3132 2.96082 9.99756 2.6485C9.58968 2.24373 9.01091 1.98215 8.30567 1.96073C8.17578 1.95734 8.07324 1.85023 8.07666 1.7217C8.08008 1.59316 8.18831 1.49168 8.3182 1.49507C9.15332 1.51987 9.84147 1.83445 10.3314 2.31927C10.7279 2.71277 10.9922 3.21902 11.0959 3.77375L11.4035 3.42986ZM14 6.73118V10.7485C14 11.0924 13.8576 11.4081 13.6297 11.6336C13.3984 11.8624 13.0828 12 12.7354 12H3.74609C3.3986 12 3.07959 11.8591 2.85173 11.6336C2.62044 11.4047 2.48145 11.0924 2.48145 10.7485V6.73118C2.48145 6.3873 2.62386 6.0716 2.85173 5.8461C3.08301 5.61721 3.39746 5.47966 3.74609 5.47966H12.7354C13.0828 5.47966 13.4019 5.6206 13.6297 5.8461C13.861 6.07498 14 6.38617 14 6.73118ZM4.03434 8.73701C4.03434 9.02001 3.80306 9.25228 3.51367 9.25228C3.2277 9.25228 2.993 9.0234 2.993 8.73701C2.993 8.45401 3.22428 8.22174 3.51367 8.22174C3.80078 8.22174 4.03434 8.45062 4.03434 8.73701ZM4.31576 5.83482V11.6403H12.6123V5.83482H4.31576Z" fill="#FF6B1B"/>
</g>
<defs>
<clipPath id="clip0_1_263">
<rect width="14" height="12" fill="white"/>
</clipPath>
</defs>
</svg>
